<?xml version="1.0" standalone="no"?>
<!DOCTYPE svg PUBLIC "-//W3C//DTD SVG 20010904//EN"
 "http://www.w3.org/TR/2001/REC-SVG-20010904/DTD/svg10.dtd">
<svg version="1.0" xmlns="http://www.w3.org/2000/svg"
 width="2082.000000pt" height="2082.000000pt" viewBox="0 0 2082.000000 2082.000000"
 preserveAspectRatio="xMidYMid meet">
<metadata>
Created by potrace 1.14, written by Peter Selinger 2001-2017
</metadata>
<g transform="translate(0.000000,2082.000000) scale(0.100000,-0.100000)"
fill="#000000" stroke="none">
<path d="M2810 14950 c-30 -3 -76 -6 -102 -5 -26 0 -48 -2 -48 -5 0 -4 -10 -6
-22 -7 -29 -1 -116 -10 -160 -17 -18 -3 -49 -8 -68 -11 -30 -4 -166 -32 -250
-51 -82 -18 -255 -68 -320 -92 -8 -3 -17 -6 -20 -6 -3 -1 -9 -4 -15 -7 -5 -4
-28 -12 -50 -19 -22 -7 -67 -26 -101 -41 -84 -39 -118 -52 -126 -51 -5 1 -8
-2 -8 -7 0 -5 -12 -12 -27 -16 -15 -3 -30 -10 -33 -13 -3 -4 -25 -17 -50 -30
-94 -47 -316 -188 -350 -222 -3 -3 -27 -23 -54 -45 -27 -21 -60 -48 -72 -60
-12 -11 -37 -34 -55 -51 -103 -94 -241 -258 -324 -384 -17 -25 -34 -48 -40
-52 -5 -4 -6 -8 -1 -8 5 0 2 -8 -6 -17 -8 -10 -22 -31 -30 -48 -8 -16 -26 -50
-39 -75 -40 -73 -133 -303 -143 -353 -2 -6 -5 -19 -8 -27 -10 -27 -27 -94 -33
-129 -3 -19 -8 -37 -10 -41 -2 -3 -6 -26 -9 -51 -3 -24 -8 -55 -11 -69 -11
-58 -19 -184 -19 -325 1 -198 12 -322 45 -495 28 -144 27 -139 33 -148 3 -5 7
-19 9 -33 14 -73 128 -348 150 -357 4 -2 7 -9 7 -15 0 -22 150 -240 225 -326
70 -82 165 -176 230 -229 77 -64 239 -182 249 -182 4 0 12 -5 19 -10 22 -18
87 -60 87 -55 0 3 21 -9 47 -25 26 -17 53 -30 60 -30 7 0 13 -4 13 -10 0 -5 4
-10 9 -10 5 0 51 -20 102 -44 125 -59 215 -96 234 -96 8 0 15 -4 15 -10 0 -5
7 -10 15 -10 9 0 57 -14 108 -31 87 -29 105 -35 117 -37 3 -1 32 -11 65 -22
33 -12 69 -23 79 -25 10 -3 35 -10 55 -17 20 -7 38 -13 41 -13 45 -9 78 -19
89 -29 8 -6 16 -10 18 -8 1 1 4 2 6 1 1 0 13 -2 27 -4 14 -2 77 -18 140 -35
63 -17 129 -34 145 -37 17 -3 38 -9 48 -14 9 -5 17 -8 17 -5 0 2 16 0 36 -6
43 -11 73 -19 94 -22 8 -2 26 -6 40 -9 14 -3 54 -13 90 -21 36 -8 103 -24 150
-36 47 -11 94 -22 105 -24 42 -9 282 -67 315 -77 19 -6 44 -12 55 -14 11 -2
20 -4 20 -5 0 -1 14 -4 30 -6 17 -3 41 -9 55 -13 25 -9 72 -22 100 -26 8 -2
30 -8 48 -13 17 -6 32 -9 32 -6 0 3 9 0 21 -6 11 -7 33 -14 47 -16 15 -3 53
-14 86 -26 32 -11 64 -21 72 -22 7 -1 17 -5 20 -9 4 -4 16 -7 26 -7 10 0 26
-4 36 -9 21 -11 53 -24 112 -46 25 -9 56 -22 70 -28 14 -6 27 -11 30 -11 22
-5 299 -148 353 -182 37 -24 70 -44 73 -44 2 0 15 -9 27 -20 12 -11 47 -39 77
-62 30 -23 77 -62 104 -87 58 -54 216 -234 216 -245 0 -2 17 -30 38 -62 21
-33 54 -95 72 -139 19 -44 39 -86 45 -94 7 -11 7 -13 -1 -8 -7 4 -4 -14 6 -46
21 -61 37 -133 47 -202 8 -65 13 -447 5 -459 -3 -5 -6 -23 -7 -40 -3 -49 -15
-120 -31 -183 -8 -32 -16 -67 -19 -78 -34 -146 -155 -399 -253 -530 -69 -93
-194 -224 -272 -286 -68 -55 -177 -129 -189 -129 -6 0 -11 -3 -11 -8 0 -4 -21
-17 -47 -30 -27 -12 -55 -27 -63 -32 -39 -25 -262 -118 -301 -125 -10 -2 -26
-8 -36 -13 -24 -13 -182 -54 -210 -55 -13 -1 -23 -4 -23 -7 0 -3 -8 -6 -17 -6
-17 -1 -61 -8 -113 -19 -14 -3 -50 -8 -80 -11 -30 -3 -66 -7 -80 -10 -129 -25
-674 -25 -865 0 -16 2 -59 8 -95 12 -75 10 -83 11 -90 14 -3 1 -18 4 -35 6
-44 5 -98 14 -115 20 -8 3 -26 8 -40 10 -14 3 -52 12 -85 21 -33 8 -64 16 -70
18 -5 1 -17 4 -25 8 -8 3 -40 13 -70 22 -221 66 -483 207 -670 358 -84 68
-230 212 -230 227 0 6 -4 10 -8 10 -10 0 -105 125 -165 217 -48 73 -177 322
-177 341 0 5 -7 23 -15 38 -8 16 -15 36 -15 45 0 9 -3 19 -8 23 -4 4 -7 11 -8
14 0 4 -3 14 -7 22 -9 22 -55 200 -62 240 -9 47 -13 65 -15 65 -1 0 -3 11 -5
25 -4 35 -15 101 -20 126 -3 11 -7 50 -10 85 -6 74 -12 109 -20 117 -4 4 -715
7 -773 3 -11 -1 -13 -29 -7 -148 6 -145 7 -168 20 -288 7 -71 23 -184 30 -205
2 -8 7 -33 11 -55 3 -22 17 -80 30 -130 14 -49 27 -99 29 -110 15 -67 86 -248
148 -375 66 -136 170 -309 190 -318 4 -2 7 -8 7 -14 0 -34 253 -319 381 -428
35 -30 75 -65 89 -78 14 -13 37 -30 53 -38 15 -8 27 -19 27 -24 0 -6 6 -10 13
-10 8 0 22 -9 32 -20 10 -11 24 -20 32 -20 7 0 13 -4 13 -8 0 -5 17 -17 38
-28 20 -10 39 -21 42 -24 9 -9 84 -55 110 -68 14 -6 32 -16 40 -22 54 -36 422
-192 458 -193 6 0 12 -5 12 -10 0 -6 3 -8 6 -5 3 4 20 2 37 -4 109 -33 167
-50 202 -58 159 -35 285 -61 315 -65 19 -3 49 -8 65 -11 17 -4 46 -8 65 -10
19 -1 53 -5 75 -8 282 -36 676 -40 1075 -11 25 2 45 4 45 5 0 1 14 3 30 5 89
7 172 15 191 19 12 2 39 7 60 10 103 17 212 37 243 46 18 5 36 9 40 8 3 0 8 1
11 2 3 1 12 3 20 5 8 2 35 8 60 14 25 7 54 14 66 16 11 3 50 14 85 26 35 11
75 23 89 25 14 3 29 9 35 15 5 5 17 9 26 9 9 0 37 9 63 21 26 11 55 22 64 24
9 2 49 18 87 36 39 18 72 33 75 34 31 6 304 159 347 195 7 6 24 15 38 22 14 6
25 15 25 19 0 5 12 15 28 23 15 8 38 23 52 35 14 11 40 33 58 48 85 71 174
156 230 219 24 27 53 60 66 74 12 14 36 43 52 65 16 22 32 42 37 43 4 2 7 8 7
12 0 5 20 38 44 73 52 76 124 209 162 299 44 104 47 113 49 118 0 3 11 34 22
70 12 36 32 101 43 145 28 106 30 114 45 205 3 19 8 42 10 50 2 8 7 47 11 85
3 39 8 86 11 105 7 53 9 530 2 530 -3 0 -5 23 -5 50 1 28 -1 50 -4 50 -3 0 -6
12 -6 28 -2 30 -11 104 -19 142 -3 14 -8 41 -11 60 -3 19 -8 38 -11 43 -2 4
-6 20 -9 35 -7 39 -66 225 -75 238 -5 6 -6 14 -2 17 3 4 0 7 -7 7 -7 0 -11 3
-7 6 7 7 -102 219 -143 280 -17 23 -30 47 -30 52 0 6 -3 12 -7 14 -5 2 -28 30
-53 63 -70 94 -79 104 -195 218 -139 137 -139 137 -153 137 -7 0 -12 3 -12 8
0 4 -27 25 -60 47 -33 22 -60 43 -60 48 0 4 -7 7 -15 7 -8 0 -15 5 -15 10 0 6
-4 10 -10 10 -5 0 -37 18 -70 40 -34 21 -75 45 -91 52 -16 7 -29 16 -29 20 0
5 -4 8 -10 8 -5 0 -53 22 -107 48 -108 53 -317 139 -356 146 -13 2 -33 9 -43
15 -11 5 -64 24 -119 41 -55 17 -107 34 -115 37 -8 3 -24 8 -35 10 -11 2 -54
14 -95 27 -88 28 -159 48 -180 52 -8 1 -76 19 -149 38 -74 20 -146 39 -160 41
-15 3 -50 11 -78 19 -29 8 -53 12 -53 10 0 -3 -9 0 -20 6 -10 6 -32 12 -47 14
-24 4 -42 8 -88 20 -5 1 -26 6 -45 10 -19 4 -64 14 -100 23 -36 9 -74 17 -85
19 -11 2 -29 5 -40 8 -11 3 -51 12 -90 21 -38 9 -119 28 -180 42 -60 14 -121
27 -135 29 -97 17 -531 140 -615 174 -11 5 -72 28 -135 53 -121 47 -270 117
-355 165 -27 16 -61 35 -75 43 -14 8 -27 17 -30 20 -3 3 -34 25 -68 48 -100
67 -221 174 -292 257 -199 232 -308 615 -276 974 10 114 45 294 64 325 4 6 7
16 8 22 4 23 38 108 75 184 84 172 210 336 368 482 29 26 56 47 61 47 6 0 10
4 10 8 0 24 296 198 440 260 54 23 113 46 120 48 3 0 12 3 20 7 64 25 238 72
304 83 21 3 48 8 60 10 11 2 41 7 66 10 25 3 52 7 60 9 15 4 106 13 203 19 26
2 50 6 53 9 3 3 19 1 35 -3 16 -5 29 -6 29 -2 0 11 124 8 132 -3 5 -7 8 -7 8
0 0 12 90 13 108 1 7 -4 12 -2 12 4 0 6 4 9 9 6 4 -3 49 -8 99 -11 49 -3 103
-7 118 -10 16 -2 52 -6 79 -10 28 -3 61 -8 75 -11 14 -3 36 -8 50 -10 73 -13
142 -28 205 -46 39 -10 78 -21 88 -23 9 -2 22 -7 27 -10 6 -4 23 -9 38 -11 15
-3 29 -9 30 -15 2 -5 7 -7 11 -4 26 16 384 -166 486 -247 6 -5 36 -28 67 -51
87 -67 160 -137 258 -252 43 -50 135 -195 185 -290 25 -49 46 -90 45 -90 -1 0
4 -13 10 -30 7 -16 16 -39 20 -50 14 -35 40 -119 46 -145 3 -14 9 -41 14 -60
5 -19 11 -46 14 -60 2 -14 7 -41 11 -60 14 -76 26 -210 29 -311 1 -68 3 -73
26 -79 14 -4 34 -4 45 0 11 4 34 4 52 -1 18 -4 35 -3 38 2 3 4 16 4 28 0 12
-5 31 -5 42 -1 11 4 29 5 40 3 35 -8 99 -8 122 -1 12 4 25 3 28 -1 3 -5 20 -6
37 -2 30 6 47 6 128 -2 14 -1 34 0 45 4 11 3 29 3 40 -1 11 -4 28 -3 38 2 9 5
17 5 17 0 0 -5 13 -7 28 -4 l28 4 -3 91 c-1 51 -5 119 -8 152 -3 33 -7 83 -9
110 -3 28 -7 64 -11 80 -3 17 -10 53 -15 80 -5 28 -13 70 -19 95 -6 25 -13 59
-16 75 -4 17 -9 37 -12 45 -4 8 -5 21 -4 28 1 6 -2 12 -7 12 -6 0 -9 6 -9 13
1 6 -11 53 -27 102 -16 50 -29 93 -28 98 1 4 -2 7 -8 7 -5 0 -10 7 -10 15 0 8
-4 23 -9 33 -5 9 -14 31 -21 47 -7 17 -16 37 -21 45 -5 8 -13 25 -19 37 -41
96 -162 302 -182 311 -5 2 -8 8 -8 13 0 10 -48 74 -114 154 -82 99 -274 282
-378 360 -86 65 -308 207 -328 210 -3 1 -51 24 -107 52 -57 29 -113 55 -125
58 -11 4 -36 14 -55 21 -18 8 -36 15 -40 15 -5 1 -26 10 -48 22 -22 11 -41 19
-43 18 -1 -1 -34 8 -72 20 -38 11 -73 21 -77 21 -5 0 -15 4 -23 8 -8 4 -67 19
-130 34 -112 24 -127 27 -200 40 -19 3 -48 8 -65 11 -32 6 -95 12 -157 17 -21
1 -38 5 -38 8 0 7 -72 10 -420 13 -168 2 -330 1 -360 -3z"/>
<path d="M10288 14955 c-2 -2 -37 -6 -78 -9 -111 -8 -174 -15 -285 -32 -16 -2
-43 -6 -60 -8 -36 -6 -81 -14 -115 -22 -14 -3 -36 -8 -50 -10 -45 -7 -55 -9
-67 -17 -7 -5 -13 -6 -13 -3 0 2 -37 -6 -82 -18 -46 -13 -86 -24 -90 -25 -4
-1 -13 -3 -20 -6 -7 -2 -42 -14 -78 -25 -36 -11 -72 -24 -80 -27 -8 -3 -17 -7
-20 -7 -12 -3 -98 -37 -190 -77 -199 -86 -459 -243 -610 -368 -72 -60 -238
-224 -290 -286 -45 -54 -120 -154 -120 -160 0 -3 -7 -13 -16 -22 -82 -91 -282
-530 -299 -657 -2 -17 -5 -32 -6 -33 -1 -2 -3 -7 -4 -13 -1 -5 -3 -11 -4 -12
-2 -2 -4 -13 -7 -25 -2 -13 -6 -33 -8 -45 -3 -13 -5 -23 -6 -23 -1 0 -3 -16
-6 -35 -2 -19 -6 -48 -9 -65 -31 -185 -21 -544 22 -775 3 -19 6 -38 5 -42 -1
-3 14 -64 33 -134 39 -140 107 -311 160 -399 19 -32 35 -59 35 -62 0 -9 102
-154 157 -224 90 -112 209 -231 323 -322 67 -52 190 -137 190 -129 0 4 4 2 8
-4 12 -17 108 -74 222 -131 41 -21 77 -40 80 -43 9 -10 251 -110 265 -110 8 0
15 -5 15 -11 0 -5 3 -8 8 -6 4 3 18 0 32 -6 14 -5 31 -11 38 -13 8 -1 21 -6
30 -10 9 -4 19 -8 22 -9 9 -2 182 -57 261 -82 43 -13 83 -26 90 -27 8 -1 39
-10 69 -19 61 -18 209 -58 225 -61 6 -1 16 -5 23 -9 6 -5 12 -6 12 -3 0 2 42
-7 92 -20 51 -14 108 -27 128 -30 19 -3 38 -8 42 -11 5 -2 18 -6 30 -9 13 -2
34 -7 48 -10 14 -3 38 -7 54 -10 16 -2 34 -8 41 -14 6 -5 14 -8 17 -5 2 3 40
-4 84 -15 87 -23 119 -30 149 -35 11 -2 20 -4 20 -5 0 -1 7 -3 15 -5 8 -2 35
-8 60 -14 25 -7 56 -14 70 -17 14 -3 43 -10 65 -16 22 -5 48 -12 57 -14 24 -5
41 -9 118 -29 36 -8 72 -17 80 -19 8 -2 35 -9 60 -16 25 -7 45 -12 45 -11 0 3
194 -54 290 -87 117 -39 307 -112 343 -132 9 -5 54 -27 99 -49 103 -50 193
-100 214 -117 8 -8 21 -14 27 -14 7 0 12 -4 12 -8 0 -4 14 -16 30 -26 112 -65
308 -256 409 -396 44 -62 131 -229 131 -253 0 -9 4 -18 9 -21 7 -5 16 -33 36
-116 6 -25 19 -89 21 -105 1 -11 3 -20 4 -20 1 0 4 -22 7 -50 2 -27 10 -53 16
-57 7 -4 7 -8 2 -8 -6 0 -8 -27 -5 -72 11 -143 -5 -362 -35 -498 -3 -14 -8
-36 -11 -50 -14 -61 -33 -131 -43 -155 -12 -26 -36 -89 -37 -95 -11 -61 -137
-280 -226 -395 -49 -63 -228 -234 -294 -280 -38 -27 -71 -52 -74 -55 -3 -3
-16 -11 -29 -18 -13 -8 -40 -23 -60 -34 -85 -48 -218 -111 -291 -137 -19 -7
-44 -17 -55 -21 -25 -10 -59 -21 -62 -21 -2 1 -20 -5 -40 -13 -56 -20 -109
-34 -193 -52 -102 -21 -110 -23 -150 -28 -19 -3 -48 -8 -65 -10 -47 -8 -123
-16 -210 -24 -108 -9 -550 -8 -650 2 -135 14 -149 15 -185 19 -19 3 -46 7 -60
10 -14 4 -43 8 -65 11 -49 6 -194 38 -295 66 -41 11 -87 23 -102 26 -16 4 -28
11 -28 17 0 6 -3 8 -6 4 -7 -7 -139 39 -171 60 -13 9 -23 13 -23 10 0 -7 -166
76 -215 107 -169 106 -291 200 -395 308 -71 73 -79 82 -130 148 -19 25 -38 47
-41 50 -5 4 -74 108 -117 175 -35 55 -145 291 -172 370 -34 96 -64 199 -75
260 -3 11 -9 38 -14 60 -6 22 -12 56 -14 75 -2 19 -7 42 -10 50 -4 8 -8 38
-11 65 -2 28 -5 50 -6 50 -2 0 -8 57 -11 113 -1 23 -7 42 -13 43 -14 1 -757 1
-773 0 -9 -1 -11 -33 -9 -120 2 -66 7 -124 10 -130 4 -6 2 -11 -4 -11 -6 0 -8
-5 -5 -10 4 -6 8 -34 11 -63 3 -48 8 -91 20 -177 3 -19 12 -73 21 -120 8 -47
16 -95 17 -107 0 -13 5 -23 10 -23 5 0 7 -3 4 -6 -14 -13 85 -324 142 -447 16
-36 30 -67 30 -70 0 -3 15 -32 34 -65 19 -33 32 -63 28 -66 -3 -3 -1 -6 5 -6
6 0 13 -8 17 -17 16 -51 132 -221 255 -376 44 -56 241 -250 306 -302 41 -33
75 -64 75 -68 0 -5 4 -6 9 -3 5 4 11 2 13 -2 5 -12 122 -94 183 -128 17 -9 32
-20 35 -23 6 -7 32 -22 129 -73 42 -22 82 -45 89 -50 6 -6 12 -8 12 -5 0 3 26
-7 58 -22 48 -24 204 -86 292 -116 3 -1 12 -5 20 -8 8 -3 42 -13 75 -22 33 -9
83 -23 110 -31 48 -14 77 -21 120 -29 11 -2 27 -6 35 -9 8 -3 31 -7 50 -10 19
-3 46 -8 60 -11 45 -11 64 -14 100 -19 19 -3 46 -7 60 -10 32 -6 99 -15 170
-21 82 -8 108 -12 119 -20 6 -3 11 -1 11 5 0 6 5 8 11 4 38 -23 689 -22 914 2
28 3 70 7 95 9 25 2 45 4 45 5 0 1 16 3 35 5 58 4 202 26 270 40 14 3 39 7 56
9 17 2 36 6 41 9 6 4 28 9 48 13 48 7 107 20 113 24 7 7 91 23 95 19 2 -2 11
2 21 10 9 8 19 11 23 8 3 -4 11 -2 18 3 6 5 20 11 31 13 10 1 24 5 29 8 6 3
44 17 85 30 41 13 77 26 80 29 3 3 23 11 45 19 133 45 485 229 485 253 0 5 4
7 9 3 5 -3 15 1 23 8 7 7 38 30 68 52 166 118 346 290 454 435 22 30 44 57 47
60 23 20 200 323 204 350 1 3 9 23 19 45 19 43 96 260 101 285 2 8 8 33 13 55
11 38 19 76 27 120 2 11 6 29 9 41 2 12 7 45 11 74 4 29 9 62 11 74 26 125 26
635 0 786 -3 14 -7 43 -10 65 -15 123 -58 289 -108 419 -29 79 -114 256 -127
266 -4 3 -11 16 -17 30 -7 14 -37 60 -68 103 -31 43 -56 80 -56 83 0 2 -8 12
-17 22 -10 10 -33 36 -52 58 -90 106 -190 199 -293 276 -29 22 -66 50 -83 63
-16 14 -36 25 -42 25 -7 0 -13 5 -13 10 0 6 -7 10 -15 10 -8 0 -15 5 -15 10 0
6 -4 10 -9 10 -5 0 -38 18 -74 40 -79 47 -237 130 -237 123 0 -2 -13 5 -30 17
-16 12 -30 18 -30 15 0 -4 -11 0 -25 9 -13 9 -32 17 -42 19 -10 2 -40 13 -67
25 -28 13 -61 25 -75 29 -14 3 -30 8 -35 11 -12 7 -218 76 -261 87 -35 10 -36
10 -55 18 -12 5 -108 34 -145 43 -62 17 -264 73 -275 78 -8 3 -26 7 -40 10
-34 6 -237 54 -280 66 -19 6 -46 12 -60 13 -14 2 -33 7 -42 11 -9 4 -21 5 -27
2 -5 -3 -11 -2 -13 3 -1 5 -21 11 -43 15 -22 3 -76 15 -120 26 -70 18 -103 25
-152 34 -7 1 -15 5 -19 8 -3 4 -12 4 -20 1 -8 -3 -14 -1 -14 3 0 5 -10 9 -22
10 -13 0 -57 8 -98 18 -41 9 -84 19 -95 21 -33 6 -66 14 -83 19 -9 3 -28 8
-42 11 -14 2 -38 8 -55 11 -84 18 -383 104 -460 133 -30 11 -55 18 -55 15 0
-4 -6 -2 -12 3 -7 6 -31 16 -53 23 -22 7 -56 20 -75 28 -19 9 -38 17 -42 18
-5 1 -11 3 -15 4 -5 1 -11 2 -15 1 -5 0 -8 4 -8 9 0 5 -3 9 -7 8 -5 -1 -21 4
-38 11 -39 16 -237 114 -250 124 -5 4 -62 41 -125 83 -63 42 -122 83 -131 92
-10 10 -36 33 -59 51 -79 66 -135 126 -190 206 -19 28 -37 52 -40 55 -8 7 -85
170 -98 205 -5 17 -13 39 -18 50 -9 25 -12 34 -18 63 -3 13 -8 33 -12 45 -4
12 -9 29 -10 37 -1 8 -9 56 -17 105 -14 89 -17 348 -4 425 16 93 23 128 27
133 1 1 4 15 6 30 8 45 76 231 88 239 6 4 8 8 4 8 -7 0 17 48 78 159 19 35 39
63 62 86 6 8 12 18 12 24 0 6 5 11 10 11 6 0 10 5 10 10 0 35 267 293 358 346
17 10 32 21 32 25 0 4 8 9 18 13 17 5 23 9 97 57 22 15 42 26 45 26 3 0 25 11
50 24 25 13 47 24 50 24 3 1 31 13 62 28 57 26 240 93 281 102 12 2 60 13 107
24 47 11 99 22 115 25 17 3 39 8 50 10 11 2 47 7 80 10 33 4 79 10 103 12 24
3 74 7 113 8 38 2 72 6 75 9 3 3 18 1 34 -3 16 -4 31 -5 35 -2 7 7 225 10 225
2 0 -3 33 -5 73 -6 107 0 220 -14 382 -44 33 -6 69 -13 80 -15 33 -5 205 -55
284 -81 105 -36 284 -117 314 -142 9 -8 17 -12 17 -8 0 4 6 2 13 -3 6 -6 55
-39 107 -73 52 -34 97 -64 100 -67 3 -4 21 -18 40 -32 65 -49 202 -191 250
-259 13 -19 27 -37 31 -40 5 -4 38 -53 74 -111 35 -58 115 -226 137 -289 36
-102 60 -181 63 -205 1 -11 5 -29 8 -40 4 -11 9 -38 12 -60 2 -22 7 -52 10
-67 8 -43 16 -135 20 -237 2 -82 5 -96 21 -102 11 -3 28 -3 40 1 11 5 27 5 34
0 7 -4 26 -4 41 0 19 6 29 5 29 -2 0 -7 4 -7 13 1 8 6 16 9 18 6 3 -2 36 -4
74 -4 88 -1 102 -1 118 -2 6 0 26 0 42 0 17 1 44 0 60 -2 17 -1 39 0 50 4 11
3 29 3 40 -1 11 -4 30 -3 43 1 15 6 21 5 17 -1 -4 -6 2 -7 17 -1 13 4 31 5 41
2 10 -4 34 -5 52 -3 l33 4 -3 106 c-3 107 -11 200 -20 257 -3 17 -7 51 -10 76
-3 26 -8 58 -11 70 -3 13 -7 38 -10 54 -20 118 -92 350 -157 509 -54 132 -282
516 -306 516 -4 0 -14 12 -24 28 -9 15 -33 45 -53 67 -57 64 -176 185 -180
185 -2 0 -12 8 -22 18 -42 39 -92 82 -92 78 0 -3 -11 5 -24 17 -39 35 -49 43
-159 114 -164 107 -311 182 -492 253 -60 23 -119 46 -130 51 -29 11 -118 39
-141 43 -10 2 -45 11 -76 21 -31 9 -70 18 -85 21 -15 3 -36 7 -45 10 -18 5
-34 9 -94 19 -59 11 -75 13 -124 19 -25 4 -54 8 -65 10 -11 2 -54 7 -95 11
-41 4 -88 10 -105 12 -35 5 -672 13 -677 8z"/>
<path d="M15396 14730 c-35 -4 -39 -8 -41 -33 0 -16 3 -31 7 -33 5 -3 4 -14
-2 -24 -7 -13 -7 -21 0 -25 6 -4 7 -12 1 -23 -5 -9 -5 -26 0 -40 5 -14 5 -21
0 -17 -6 3 -6 -6 -1 -25 5 -16 5 -30 1 -30 -8 0 -7 -47 2 -56 3 -4 2 -15 -3
-25 -7 -12 -7 -20 0 -24 6 -4 7 -12 3 -18 -8 -14 -7 -93 2 -107 3 -6 2 -10 -2
-10 -10 0 -10 -47 0 -56 3 -4 2 -15 -3 -25 -7 -12 -7 -20 0 -24 6 -4 7 -12 1
-23 -5 -9 -5 -26 0 -40 5 -14 5 -21 0 -17 -6 3 -6 -6 -1 -25 5 -16 5 -30 1
-30 -8 0 -7 -47 2 -56 3 -4 2 -15 -3 -25 -7 -12 -7 -20 0 -24 6 -4 7 -12 3
-18 -8 -14 -7 -93 2 -107 3 -6 2 -10 -2 -10 -10 0 -10 -47 0 -56 3 -4 2 -15
-3 -25 -7 -12 -7 -20 0 -24 6 -4 7 -12 1 -23 -5 -9 -5 -26 0 -40 5 -14 5 -21
0 -17 -6 3 -6 -6 -1 -25 5 -16 5 -30 1 -30 -8 0 -7 -47 2 -56 3 -4 2 -15 -3
-25 -7 -12 -7 -20 0 -24 6 -4 7 -12 3 -18 -8 -14 -7 -93 2 -107 3 -6 2 -10 -2
-10 -10 0 -10 -47 0 -56 3 -4 2 -15 -3 -25 -7 -12 -7 -20 0 -24 6 -4 7 -12 1
-23 -5 -9 -5 -26 0 -40 5 -14 5 -21 0 -17 -6 3 -6 -6 -1 -25 5 -16 5 -30 1
-30 -8 0 -7 -47 2 -56 3 -4 2 -15 -3 -25 -7 -12 -7 -20 0 -24 6 -4 7 -12 3
-18 -8 -14 -7 -93 2 -107 3 -6 2 -10 -2 -10 -10 0 -10 -47 0 -56 3 -4 2 -15
-3 -25 -7 -12 -7 -20 0 -24 6 -4 7 -12 1 -23 -5 -9 -5 -26 0 -40 5 -14 5 -21
0 -17 -6 3 -6 -6 -1 -25 5 -16 5 -30 1 -30 -8 0 -7 -47 2 -56 3 -4 2 -15 -3
-25 -7 -12 -7 -20 0 -24 6 -4 7 -12 3 -18 -8 -14 -7 -93 2 -107 3 -6 2 -10 -2
-10 -10 0 -10 -47 0 -56 3 -4 2 -15 -3 -25 -7 -12 -7 -20 0 -24 6 -4 7 -12 1
-23 -5 -9 -5 -26 0 -40 5 -14 5 -21 0 -17 -6 3 -6 -6 -1 -25 5 -16 5 -30 1
-30 -8 0 -7 -47 2 -56 3 -4 2 -15 -3 -25 -7 -12 -7 -20 0 -24 6 -4 7 -12 3
-18 -8 -14 -7 -93 2 -107 3 -6 2 -10 -2 -10 -10 0 -10 -47 0 -56 3 -4 2 -15
-3 -25 -7 -12 -7 -20 0 -24 6 -4 7 -12 1 -23 -5 -9 -5 -26 0 -40 5 -14 5 -21
0 -17 -6 3 -6 -6 -1 -25 5 -16 5 -30 1 -30 -8 0 -7 -47 2 -56 3 -4 2 -15 -3
-25 -7 -12 -7 -20 0 -24 6 -4 7 -12 3 -18 -8 -14 -7 -93 2 -107 3 -6 2 -10 -2
-10 -10 0 -10 -47 0 -56 3 -4 2 -15 -3 -25 -7 -12 -7 -20 0 -24 6 -4 7 -12 1
-23 -5 -9 -5 -26 0 -40 5 -14 5 -21 0 -17 -6 3 -6 -6 -1 -25 5 -16 5 -30 1
-30 -8 0 -7 -47 2 -56 3 -4 2 -15 -3 -25 -7 -12 -7 -20 0 -24 6 -4 7 -12 3
-18 -8 -14 -7 -93 2 -107 3 -6 2 -10 -2 -10 -10 0 -10 -47 0 -56 3 -4 2 -15
-3 -25 -7 -12 -7 -20 0 -24 6 -4 7 -12 1 -23 -5 -9 -5 -26 0 -40 5 -14 5 -21
0 -17 -6 3 -6 -6 -1 -25 5 -16 6 -30 2 -30 -9 0 -7 -63 2 -78 3 -6 2 -13 -3
-17 -7 -3 -7 -15 -1 -30 6 -15 6 -27 0 -30 -7 -4 -6 -13 0 -26 6 -10 7 -19 3
-19 -4 0 -8 -13 -8 -30 0 -16 4 -30 8 -30 4 0 3 -9 -3 -19 -7 -13 -7 -22 0
-26 6 -4 7 -12 1 -23 -5 -9 -5 -26 0 -39 5 -13 4 -25 -1 -28 -7 -4 -6 -13 0
-26 6 -10 7 -19 3 -19 -4 0 -8 -13 -8 -30 0 -16 3 -30 7 -30 4 0 3 -11 -2 -25
-6 -17 -6 -25 1 -25 6 0 7 -6 0 -17 -5 -10 -5 -26 0 -40 5 -13 4 -25 -1 -28
-7 -4 -6 -13 0 -26 6 -10 7 -19 3 -19 -4 0 -8 -13 -8 -30 0 -16 4 -30 8 -30 4
0 3 -9 -3 -19 -7 -13 -7 -22 0 -26 6 -4 7 -12 1 -23 -5 -9 -5 -26 0 -39 5 -13
4 -25 -1 -28 -7 -4 -6 -13 0 -26 6 -10 7 -19 3 -19 -4 0 -8 -13 -8 -30 0 -16
3 -30 7 -30 4 0 3 -11 -2 -25 -6 -17 -6 -25 1 -25 6 0 7 -6 0 -17 -5 -10 -5
-26 0 -40 5 -13 4 -25 -1 -28 -7 -4 -6 -13 0 -26 6 -10 7 -19 3 -19 -4 0 -8
-13 -8 -30 0 -16 4 -30 8 -30 4 0 3 -9 -3 -19 -7 -13 -7 -22 0 -26 6 -4 7 -12
1 -23 -5 -9 -5 -26 0 -39 5 -13 4 -25 -1 -28 -7 -4 -6 -13 0 -26 6 -10 7 -19
3 -19 -4 0 -8 -13 -8 -30 0 -16 3 -30 7 -30 4 0 3 -11 -2 -25 -6 -17 -6 -25 1
-25 6 0 7 -6 0 -17 -5 -10 -5 -26 0 -40 5 -13 4 -25 -1 -28 -7 -4 -6 -13 0
-26 6 -10 7 -19 3 -19 -4 0 -8 -13 -8 -30 0 -16 4 -30 8 -30 4 0 3 -9 -3 -19
-7 -13 -7 -22 0 -26 6 -4 7 -12 1 -23 -5 -9 -5 -26 0 -39 5 -13 4 -25 -1 -28
-7 -4 -6 -13 0 -26 6 -10 7 -19 3 -19 -4 0 -8 -13 -8 -30 0 -16 3 -30 7 -30 4
0 3 -11 -2 -25 -6 -17 -6 -25 1 -25 6 0 7 -6 0 -17 -5 -10 -5 -26 0 -40 5 -13
4 -25 -1 -28 -7 -4 -6 -13 0 -26 6 -10 7 -19 3 -19 -4 0 -8 -13 -8 -30 0 -16
4 -30 8 -30 4 0 3 -9 -3 -19 -7 -13 -7 -22 0 -26 6 -4 7 -12 1 -23 -5 -9 -5
-26 0 -39 5 -13 4 -25 -1 -28 -7 -4 -6 -13 0 -26 6 -10 7 -19 3 -19 -4 0 -8
-13 -8 -30 0 -16 3 -30 7 -30 4 0 3 -11 -2 -25 -6 -17 -6 -25 1 -25 6 0 7 -6
0 -17 -5 -10 -5 -26 0 -40 5 -13 4 -25 -1 -28 -7 -4 -6 -13 0 -26 6 -10 7 -19
3 -19 -4 0 -8 -13 -8 -30 0 -16 4 -30 8 -30 4 0 3 -9 -3 -19 -7 -13 -7 -22 0
-26 6 -4 7 -12 1 -23 -5 -9 -5 -26 0 -39 5 -13 4 -25 -1 -28 -7 -4 -6 -13 0
-26 6 -10 7 -19 3 -19 -4 0 -8 -13 -8 -30 0 -16 3 -30 7 -30 4 0 3 -11 -2 -25
-6 -17 -6 -25 1 -25 6 0 7 -6 0 -17 -5 -10 -5 -26 0 -40 5 -13 4 -25 -1 -28
-7 -4 -6 -13 0 -26 6 -10 7 -19 3 -19 -4 0 -8 -13 -8 -30 0 -16 4 -30 8 -30 4
0 3 -9 -3 -19 -7 -13 -7 -22 0 -26 6 -4 7 -12 1 -23 -5 -9 -5 -26 0 -39 5 -13
4 -25 -1 -28 -7 -4 -6 -13 0 -26 6 -10 7 -19 3 -19 -4 0 -8 -13 -8 -30 0 -16
3 -30 7 -30 4 0 3 -11 -2 -25 -6 -17 -6 -25 1 -25 6 0 7 -6 0 -17 -5 -10 -5
-26 0 -40 5 -13 4 -25 -1 -28 -7 -4 -6 -13 0 -26 6 -10 7 -19 3 -19 -4 0 -8
-13 -8 -30 0 -16 4 -30 8 -30 4 0 3 -9 -3 -19 -7 -13 -7 -22 0 -26 6 -4 7 -12
1 -23 -5 -9 -5 -26 0 -39 5 -13 4 -25 -1 -28 -7 -4 -6 -13 0 -26 6 -10 7 -19
3 -19 -4 0 -8 -13 -8 -30 0 -16 3 -30 7 -30 4 0 3 -11 -2 -25 -6 -17 -6 -25 1
-25 6 0 7 -6 0 -17 -5 -10 -5 -26 0 -40 5 -13 4 -25 -1 -28 -7 -4 -6 -13 0
-26 6 -10 7 -19 3 -19 -4 0 -8 -13 -8 -30 0 -16 4 -30 8 -30 4 0 3 -9 -3 -19
-7 -13 -7 -22 0 -26 6 -4 7 -12 1 -23 -5 -9 -5 -26 0 -39 5 -13 4 -25 -1 -28
-7 -4 -6 -13 0 -26 6 -10 7 -19 3 -19 -4 0 -8 -13 -8 -30 0 -16 4 -30 8 -30 4
0 3 -9 -3 -19 -7 -13 -7 -22 0 -26 6 -4 7 -12 1 -23 -5 -9 -5 -26 0 -40 5 -13
6 -21 1 -18 -9 5 -7 -58 2 -73 5 -7 876 -9 2724 -8 l2717 2 1 346 2 347 -2308
0 c-1270 0 -2312 2 -2317 5 -4 3 -8 1790 -8 3971 l0 3966 -20 0 c-152 4 -730
4 -759 0z"/>
</g>
</svg>
