<?xml version="1.0" encoding="UTF-8" standalone="no"?>
<!DOCTYPE svg PUBLIC "-//W3C//DTD SVG 1.1//EN" "http://www.w3.org/Graphics/SVG/1.1/DTD/svg11.dtd">
<svg width="100%" height="100%" viewBox="0 0 1041 455" version="1.1" xmlns="http://www.w3.org/2000/svg" xmlns:xlink="http://www.w3.org/1999/xlink" xml:space="preserve" xmlns:serif="http://www.serif.com/" style="fill-rule:evenodd;clip-rule:evenodd;stroke-linejoin:round;stroke-miterlimit:2;">
    <g transform="matrix(1,0,0,1,-3118.62,-1526.54)">
        <g transform="matrix(1,0,0,1,-103.883,0)">
            <g transform="matrix(1,0,0,1,2302.27,518.855)">
                <path d="M959.832,1322.08C961.432,1341.28 965.732,1357.58 972.732,1370.98C979.732,1384.38 988.732,1395.28 999.732,1403.68C1010.73,1412.08 1023.43,1418.18 1037.83,1421.98C1052.23,1425.78 1067.63,1427.68 1084.03,1427.68C1103.23,1427.68 1119.83,1425.28 1133.83,1420.48C1147.83,1415.68 1159.23,1409.18 1168.03,1400.98C1176.83,1392.78 1183.33,1383.28 1187.53,1372.48C1191.73,1361.68 1193.83,1350.28 1193.83,1338.28C1193.83,1321.48 1190.03,1307.88 1182.43,1297.48C1174.83,1287.08 1164.93,1278.58 1152.73,1271.98C1140.53,1265.38 1126.53,1260.08 1110.73,1256.08C1094.93,1252.08 1078.73,1248.18 1062.13,1244.38C1045.53,1240.58 1029.33,1236.08 1013.53,1230.88C997.732,1225.68 983.732,1218.68 971.532,1209.88C959.332,1201.08 949.432,1189.78 941.832,1175.98C934.232,1162.18 930.432,1144.68 930.432,1123.48C930.432,1108.68 933.532,1094.28 939.732,1080.28C945.932,1066.28 955.132,1053.88 967.332,1043.08C979.532,1032.28 994.832,1023.68 1013.23,1017.28C1031.63,1010.88 1052.83,1007.68 1076.83,1007.68C1101.23,1007.68 1122.53,1011.08 1140.73,1017.88C1158.93,1024.68 1174.03,1033.98 1186.03,1045.78C1198.03,1057.58 1207.03,1071.28 1213.03,1086.88C1219.03,1102.48 1222.03,1119.08 1222.03,1136.68L1183.03,1136.68C1183.03,1120.28 1180.13,1106.08 1174.33,1094.08C1168.53,1082.08 1160.63,1072.28 1150.63,1064.68C1140.63,1057.08 1129.23,1051.48 1116.43,1047.88C1103.63,1044.28 1090.43,1042.48 1076.83,1042.48C1056.03,1042.48 1038.53,1045.38 1024.33,1051.18C1010.13,1056.98 998.832,1064.48 990.432,1073.68C982.032,1082.88 976.232,1093.08 973.032,1104.28C969.832,1115.48 969.232,1126.68 971.232,1137.88C973.632,1151.88 979.232,1163.08 988.032,1171.48C996.832,1179.88 1007.63,1186.78 1020.43,1192.18C1033.23,1197.58 1047.33,1201.98 1062.73,1205.38C1078.13,1208.78 1093.83,1212.38 1109.83,1216.18C1125.83,1219.98 1141.33,1224.48 1156.33,1229.68C1171.33,1234.88 1184.63,1241.88 1196.23,1250.68C1207.83,1259.48 1217.13,1270.78 1224.13,1284.58C1231.13,1298.38 1234.63,1315.68 1234.63,1336.48C1234.63,1376.48 1220.83,1407.48 1193.23,1429.48C1165.63,1451.48 1126.83,1462.48 1076.83,1462.48C1054.43,1462.48 1033.63,1459.58 1014.43,1453.78C995.232,1447.98 978.632,1439.18 964.632,1427.38C950.632,1415.58 939.732,1400.98 931.932,1383.58C924.132,1366.18 920.232,1345.68 920.232,1322.08L959.832,1322.08Z" style="fill:rgb(38,96,118);fill-rule:nonzero;"/>
                <path d="M1332.43,1322.08C1334.03,1341.28 1338.33,1357.58 1345.33,1370.98C1352.33,1384.38 1361.33,1395.28 1372.33,1403.68C1383.33,1412.08 1396.03,1418.18 1410.43,1421.98C1424.83,1425.78 1440.23,1427.68 1456.63,1427.68C1475.83,1427.68 1492.43,1425.28 1506.43,1420.48C1520.43,1415.68 1531.83,1409.18 1540.63,1400.98C1549.43,1392.78 1555.93,1383.28 1560.13,1372.48C1564.33,1361.68 1566.43,1350.28 1566.43,1338.28C1566.43,1321.48 1562.63,1307.88 1555.03,1297.48C1547.43,1287.08 1537.53,1278.58 1525.33,1271.98C1513.13,1265.38 1499.13,1260.08 1483.33,1256.08C1467.53,1252.08 1451.33,1248.18 1434.73,1244.38C1418.13,1240.58 1401.93,1236.08 1386.13,1230.88C1370.33,1225.68 1356.33,1218.68 1344.13,1209.88C1331.93,1201.08 1322.03,1189.78 1314.43,1175.98C1306.83,1162.18 1303.03,1144.68 1303.03,1123.48C1303.03,1108.68 1306.13,1094.28 1312.33,1080.28C1318.53,1066.28 1327.73,1053.88 1339.93,1043.08C1352.13,1032.28 1367.43,1023.68 1385.83,1017.28C1404.23,1010.88 1425.43,1007.68 1449.43,1007.68C1473.83,1007.68 1495.13,1011.08 1513.33,1017.88C1531.53,1024.68 1546.63,1033.98 1558.63,1045.78C1570.63,1057.58 1579.63,1071.28 1585.63,1086.88C1591.63,1102.48 1594.63,1119.08 1594.63,1136.68L1555.63,1136.68C1555.63,1120.28 1552.73,1106.08 1546.93,1094.08C1541.13,1082.08 1533.23,1072.28 1523.23,1064.68C1513.23,1057.08 1501.83,1051.48 1489.03,1047.88C1476.23,1044.28 1463.03,1042.48 1449.43,1042.48C1428.63,1042.48 1411.13,1045.38 1396.93,1051.18C1382.73,1056.98 1371.43,1064.48 1363.03,1073.68C1354.63,1082.88 1348.83,1093.08 1345.63,1104.28C1342.43,1115.48 1341.83,1126.68 1343.83,1137.88C1346.23,1151.88 1351.83,1163.08 1360.63,1171.48C1369.43,1179.88 1380.23,1186.78 1393.03,1192.18C1405.83,1197.58 1419.93,1201.98 1435.33,1205.38C1450.73,1208.78 1466.43,1212.38 1482.43,1216.18C1498.43,1219.98 1513.93,1224.48 1528.93,1229.68C1543.93,1234.88 1557.23,1241.88 1568.83,1250.68C1580.43,1259.48 1589.73,1270.78 1596.73,1284.58C1603.73,1298.38 1607.23,1315.68 1607.23,1336.48C1607.23,1376.48 1593.43,1407.48 1565.83,1429.48C1538.23,1451.48 1499.43,1462.48 1449.43,1462.48C1427.03,1462.48 1406.23,1459.58 1387.03,1453.78C1367.83,1447.98 1351.23,1439.18 1337.23,1427.38C1323.23,1415.58 1312.33,1400.98 1304.53,1383.58C1296.73,1366.18 1292.83,1345.68 1292.83,1322.08L1332.43,1322.08Z" style="fill:rgb(91,158,187);fill-rule:nonzero;"/>
                <path d="M1688.23,1451.08L1688.23,1019.08L1729.03,1019.08L1729.03,1416.28L1960.63,1416.28L1960.63,1451.08L1688.23,1451.08Z" style="fill:rgb(126,214,214);fill-rule:nonzero;"/>
            </g>
        </g>
    </g>
</svg>
